{
    "asset" : {
        "generator" : "Khronos glTF Blender I/O v3.3.27",
        "version" : "2.0"
    },
    "extensionsUsed" : [
        "KHR_materials_transmission",
        "KHR_materials_ior",
        "KHR_materials_clearcoat"
    ],
    "scene" : 0,
    "scenes" : [
        {
            "name" : "Scene",
            "nodes" : [
                0,
                1,
                2,
                3
            ]
        }
    ],
    "nodes" : [
        {
            "mesh" : 0,
            "name" : "GLB-Disk",
            "translation" : [
                -8.194252967834473,
                0.4638519883155823,
                -0.769906222820282
            ]
        },
        {
            "mesh" : 1,
            "name" : "GLB-Bottom",
            "translation" : [
                -8.194252967834473,
                0.4638519883155823,
                -0.769906222820282
            ]
        },
        {
            "mesh" : 2,
            "name" : "GLB-Top",
            "translation" : [
                -8.194252967834473,
                0.4638519883155823,
                -0.769906222820282
            ]
        },
        {
            "mesh" : 3,
            "name" : "GLB-Clip",
            "translation" : [
                -8.194252967834473,
                0.4638519883155823,
                -0.769906222820282
            ]
        }
    ],
    "materials" : [
        {
            "doubleSided" : true,
            "name" : "LILY-CD",
            "pbrMetallicRoughness" : {
                "baseColorTexture" : {
                    "index" : 0,
                    "texCoord" : 1
                },
                "metallicFactor" : 0,
                "roughnessFactor" : 0.15485164523124695
            }
        },
        {
            "doubleSided" : true,
            "extensions" : {
                "KHR_materials_transmission" : {
                    "transmissionFactor" : 0.5318182110786438
                },
                "KHR_materials_ior" : {
                    "ior" : 1.4500000476837158
                }
            },
            "name" : "Material.003",
            "pbrMetallicRoughness" : {
                "baseColorFactor" : [
                    0.7626240253448486,
                    1,
                    0.9600633382797241,
                    1
                ],
                "metallicFactor" : 0.6772727370262146,
                "roughnessFactor" : 0.37727272510528564
            }
        },
        {
            "doubleSided" : true,
            "name" : "CD Black",
            "pbrMetallicRoughness" : {
                "baseColorFactor" : [
                    0,
                    0,
                    0,
                    1
                ],
                "metallicFactor" : 0,
                "roughnessFactor" : 0.07727273553609848
            }
        },
        {
            "doubleSided" : true,
            "extensions" : {
                "KHR_materials_transmission" : {
                    "transmissionFactor" : 1
                },
                "KHR_materials_ior" : {
                    "ior" : 1.4500000476837158
                }
            },
            "name" : "Basic CD Case",
            "pbrMetallicRoughness" : {
                "metallicFactor" : 0,
                "roughnessFactor" : 0.0363636240363121
            }
        },
        {
            "doubleSided" : true,
            "extensions" : {
                "KHR_materials_clearcoat" : {
                    "clearcoatFactor" : 0.3212435245513916,
                    "clearcoatRoughnessFactor" : 0.029999999329447746
                }
            },
            "name" : "Basic Case Back",
            "pbrMetallicRoughness" : {
                "baseColorTexture" : {
                    "index" : 1,
                    "texCoord" : 1
                },
                "metallicFactor" : 0,
                "roughnessFactor" : 0.13212436437606812
            }
        },
        {
            "doubleSided" : true,
            "name" : "Rainbow Clip.001",
            "pbrMetallicRoughness" : {
                "baseColorTexture" : {
                    "index" : 2
                },
                "metallicFactor" : 0,
                "roughnessFactor" : 0.18636363744735718
            }
        }
    ],
    "meshes" : [
        {
            "name" : "Cube.041",
            "primitives" : [
                {
                    "attributes" : {
                        "POSITION" : 0,
                        "NORMAL" : 1,
                        "TEXCOORD_0" : 2,
                        "TEXCOORD_1" : 3
                    },
                    "indices" : 4,
                    "material" : 0
                },
                {
                    "attributes" : {
                        "POSITION" : 5,
                        "NORMAL" : 6,
                        "TEXCOORD_0" : 7,
                        "TEXCOORD_1" : 8
                    },
                    "indices" : 9,
                    "material" : 1
                },
                {
                    "attributes" : {
                        "POSITION" : 10,
                        "NORMAL" : 11,
                        "TEXCOORD_0" : 12,
                        "TEXCOORD_1" : 13
                    },
                    "indices" : 14,
                    "material" : 2
                }
            ]
        },
        {
            "name" : "Cube.042",
            "primitives" : [
                {
                    "attributes" : {
                        "POSITION" : 15,
                        "NORMAL" : 16,
                        "TEXCOORD_0" : 17,
                        "TEXCOORD_1" : 18
                    },
                    "indices" : 19,
                    "material" : 3
                },
                {
                    "attributes" : {
                        "POSITION" : 20,
                        "NORMAL" : 21,
                        "TEXCOORD_0" : 22,
                        "TEXCOORD_1" : 23
                    },
                    "indices" : 24,
                    "material" : 4
                },
                {
                    "attributes" : {
                        "POSITION" : 25,
                        "NORMAL" : 26,
                        "TEXCOORD_0" : 27,
                        "TEXCOORD_1" : 28
                    },
                    "indices" : 29,
                    "material" : 3
                }
            ]
        },
        {
            "name" : "Cube.043",
            "primitives" : [
                {
                    "attributes" : {
                        "POSITION" : 30,
                        "NORMAL" : 31,
                        "TEXCOORD_0" : 32,
                        "TEXCOORD_1" : 33
                    },
                    "indices" : 34,
                    "material" : 3
                }
            ]
        },
        {
            "name" : "Plane.014",
            "primitives" : [
                {
                    "attributes" : {
                        "POSITION" : 35,
                        "NORMAL" : 36,
                        "TEXCOORD_0" : 37
                    },
                    "indices" : 38,
                    "material" : 5
                }
            ]
        }
    ],
    "textures" : [
        {
            "sampler" : 0,
            "source" : 0
        },
        {
            "sampler" : 1,
            "source" : 1
        },
        {
            "sampler" : 0,
            "source" : 2
        }
    ],
    "images" : [
        {
            "bufferView" : 5,
            "mimeType" : "image/png",
            "name" : "Front-Final"
        },
        {
            "bufferView" : 26,
            "mimeType" : "image/png",
            "name" : "Back_Final"
        },
        {
            "bufferView" : 41,
            "mimeType" : "image/png",
            "name" : "ClipTexture"
        }
    ],
    "accessors" : [
        {
            "bufferView" : 0,
            "componentType" : 5126,
            "count" : 3072,
            "max" : [
                0.07765769958496094,
                4.7800164222717285,
                4.779989242553711
            ],
            "min" : [
                0.007656097412109375,
                -4.779996871948242,
                -4.78002405166626
            ],
            "type" : "VEC3"
        },
        {
            "bufferView" : 1,
            "componentType" : 5126,
            "count" : 3072,
            "type" : "VEC3"
        },
        {
            "bufferView" : 2,
            "componentType" : 5126,
            "count" : 3072,
            "type" : "VEC2"
        },
        {
            "bufferView" : 3,
            "componentType" : 5126,
            "count" : 3072,
            "type" : "VEC2"
        },
        {
            "bufferView" : 4,
            "componentType" : 5123,
            "count" : 15360,
            "type" : "SCALAR"
        },
        {
            "bufferView" : 6,
            "componentType" : 5126,
            "count" : 5632,
            "max" : [
                0.07765769958496094,
                4.836262226104736,
                4.8362345695495605
            ],
            "min" : [
                0.007656097412109375,
                -4.836243152618408,
                -4.836270809173584
            ],
            "type" : "VEC3"
        },
        {
            "bufferView" : 7,
            "componentType" : 5126,
            "count" : 5632,
            "type" : "VEC3"
        },
        {
            "bufferView" : 8,
            "componentType" : 5126,
            "count" : 5632,
            "type" : "VEC2"
        },
        {
            "bufferView" : 9,
            "componentType" : 5126,
            "count" : 5632,
            "type" : "VEC2"
        },
        {
            "bufferView" : 10,
            "componentType" : 5123,
            "count" : 30720,
            "type" : "SCALAR"
        },
        {
            "bufferView" : 11,
            "componentType" : 5126,
            "count" : 768,
            "max" : [
                0.07765674591064453,
                1.2997939586639404,
                1.2997655868530273
            ],
            "min" : [
                0.007657051086425781,
                -1.2997736930847168,
                -1.2998013496398926
            ],
            "type" : "VEC3"
        },
        {
            "bufferView" : 12,
            "componentType" : 5126,
            "count" : 768,
            "type" : "VEC3"
        },
        {
            "bufferView" : 13,
            "componentType" : 5126,
            "count" : 768,
            "type" : "VEC2"
        },
        {
            "bufferView" : 14,
            "componentType" : 5126,
            "count" : 768,
            "type" : "VEC2"
        },
        {
            "bufferView" : 15,
            "componentType" : 5123,
            "count" : 3072,
            "type" : "SCALAR"
        },
        {
            "bufferView" : 16,
            "componentType" : 5126,
            "count" : 1157,
            "max" : [
                0.16020488739013672,
                5.080670356750488,
                5.343867778778076
            ],
            "min" : [
                -0.21439743041992188,
                -5.080671787261963,
                -5.343846797943115
            ],
            "type" : "VEC3"
        },
        {
            "bufferView" : 17,
            "componentType" : 5126,
            "count" : 1157,
            "type" : "VEC3"
        },
        {
            "bufferView" : 18,
            "componentType" : 5126,
            "count" : 1157,
            "type" : "VEC2"
        },
        {
            "bufferView" : 19,
            "componentType" : 5126,
            "count" : 1157,
            "type" : "VEC2"
        },
        {
            "bufferView" : 20,
            "componentType" : 5123,
            "count" : 5040,
            "type" : "SCALAR"
        },
        {
            "bufferView" : 21,
            "componentType" : 5126,
            "count" : 20,
            "max" : [
                -0.1907339096069336,
                4.9850029945373535,
                5.243244647979736
            ],
            "min" : [
                -0.1907339096069336,
                -4.985004425048828,
                -5.243223667144775
            ],
            "type" : "VEC3"
        },
        {
            "bufferView" : 22,
            "componentType" : 5126,
            "count" : 20,
            "type" : "VEC3"
        },
        {
            "bufferView" : 23,
            "componentType" : 5126,
            "count" : 20,
            "type" : "VEC2"
        },
        {
            "bufferView" : 24,
            "componentType" : 5126,
            "count" : 20,
            "type" : "VEC2"
        },
        {
            "bufferView" : 25,
            "componentType" : 5123,
            "count" : 54,
            "type" : "SCALAR"
        },
        {
            "bufferView" : 27,
            "componentType" : 5126,
            "count" : 2409,
            "max" : [
                0.09835147857666016,
                5.077990531921387,
                5.28219747543335
            ],
            "min" : [
                -0.1907339096069336,
                -5.019001007080078,
                -5.341165065765381
            ],
            "type" : "VEC3"
        },
        {
            "bufferView" : 28,
            "componentType" : 5126,
            "count" : 2409,
            "type" : "VEC3"
        },
        {
            "bufferView" : 29,
            "componentType" : 5126,
            "count" : 2409,
            "type" : "VEC2"
        },
        {
            "bufferView" : 30,
            "componentType" : 5126,
            "count" : 2409,
            "type" : "VEC2"
        },
        {
            "bufferView" : 31,
            "componentType" : 5123,
            "count" : 13926,
            "type" : "SCALAR"
        },
        {
            "bufferView" : 32,
            "componentType" : 5126,
            "count" : 3139,
            "max" : [
                0.2237248420715332,
                5.080670356750488,
                5.343867778778076
            ],
            "min" : [
                0.11020469665527344,
                -5.080672264099121,
                -5.343847274780273
            ],
            "type" : "VEC3"
        },
        {
            "bufferView" : 33,
            "componentType" : 5126,
            "count" : 3139,
            "type" : "VEC3"
        },
        {
            "bufferView" : 34,
            "componentType" : 5126,
            "count" : 3139,
            "type" : "VEC2"
        },
        {
            "bufferView" : 35,
            "componentType" : 5126,
            "count" : 3139,
            "type" : "VEC2"
        },
        {
            "bufferView" : 36,
            "componentType" : 5123,
            "count" : 5484,
            "type" : "SCALAR"
        },
        {
            "bufferView" : 37,
            "componentType" : 5126,
            "count" : 487,
            "max" : [
                0.1979360580444336,
                1.4325792789459229,
                -2.927654981613159
            ],
            "min" : [
                -0.24772071838378906,
                -1.4325792789459229,
                -5.377241134643555
            ],
            "type" : "VEC3"
        },
        {
            "bufferView" : 38,
            "componentType" : 5126,
            "count" : 487,
            "type" : "VEC3"
        },
        {
            "bufferView" : 39,
            "componentType" : 5126,
            "count" : 487,
            "type" : "VEC2"
        },
        {
            "bufferView" : 40,
            "componentType" : 5123,
            "count" : 2484,
            "type" : "SCALAR"
        }
    ],
    "bufferViews" : [
        {
            "buffer" : 0,
            "byteLength" : 36864,
            "byteOffset" : 0,
            "target" : 34962
        },
        {
            "buffer" : 0,
            "byteLength" : 36864,
            "byteOffset" : 36864,
            "target" : 34962
        },
        {
            "buffer" : 0,
            "byteLength" : 24576,
            "byteOffset" : 73728,
            "target" : 34962
        },
        {
            "buffer" : 0,
            "byteLength" : 24576,
            "byteOffset" : 98304,
            "target" : 34962
        },
        {
            "buffer" : 0,
            "byteLength" : 30720,
            "byteOffset" : 122880,
            "target" : 34963
        },
        {
            "buffer" : 0,
            "byteLength" : 127619,
            "byteOffset" : 153600
        },
        {
            "buffer" : 0,
            "byteLength" : 67584,
            "byteOffset" : 281220,
            "target" : 34962
        },
        {
            "buffer" : 0,
            "byteLength" : 67584,
            "byteOffset" : 348804,
            "target" : 34962
        },
        {
            "buffer" : 0,
            "byteLength" : 45056,
            "byteOffset" : 416388,
            "target" : 34962
        },
        {
            "buffer" : 0,
            "byteLength" : 45056,
            "byteOffset" : 461444,
            "target" : 34962
        },
        {
            "buffer" : 0,
            "byteLength" : 61440,
            "byteOffset" : 506500,
            "target" : 34963
        },
        {
            "buffer" : 0,
            "byteLength" : 9216,
            "byteOffset" : 567940,
            "target" : 34962
        },
        {
            "buffer" : 0,
            "byteLength" : 9216,
            "byteOffset" : 577156,
            "target" : 34962
        },
        {
            "buffer" : 0,
            "byteLength" : 6144,
            "byteOffset" : 586372,
            "target" : 34962
        },
        {
            "buffer" : 0,
            "byteLength" : 6144,
            "byteOffset" : 592516,
            "target" : 34962
        },
        {
            "buffer" : 0,
            "byteLength" : 6144,
            "byteOffset" : 598660,
            "target" : 34963
        },
        {
            "buffer" : 0,
            "byteLength" : 13884,
            "byteOffset" : 604804,
            "target" : 34962
        },
        {
            "buffer" : 0,
            "byteLength" : 13884,
            "byteOffset" : 618688,
            "target" : 34962
        },
        {
            "buffer" : 0,
            "byteLength" : 9256,
            "byteOffset" : 632572,
            "target" : 34962
        },
        {
            "buffer" : 0,
            "byteLength" : 9256,
            "byteOffset" : 641828,
            "target" : 34962
        },
        {
            "buffer" : 0,
            "byteLength" : 10080,
            "byteOffset" : 651084,
            "target" : 34963
        },
        {
            "buffer" : 0,
            "byteLength" : 240,
            "byteOffset" : 661164,
            "target" : 34962
        },
        {
            "buffer" : 0,
            "byteLength" : 240,
            "byteOffset" : 661404,
            "target" : 34962
        },
        {
            "buffer" : 0,
            "byteLength" : 160,
            "byteOffset" : 661644,
            "target" : 34962
        },
        {
            "buffer" : 0,
            "byteLength" : 160,
            "byteOffset" : 661804,
            "target" : 34962
        },
        {
            "buffer" : 0,
            "byteLength" : 108,
            "byteOffset" : 661964,
            "target" : 34963
        },
        {
            "buffer" : 0,
            "byteLength" : 49262,
            "byteOffset" : 662072
        },
        {
            "buffer" : 0,
            "byteLength" : 28908,
            "byteOffset" : 711336,
            "target" : 34962
        },
        {
            "buffer" : 0,
            "byteLength" : 28908,
            "byteOffset" : 740244,
            "target" : 34962
        },
        {
            "buffer" : 0,
            "byteLength" : 19272,
            "byteOffset" : 769152,
            "target" : 34962
        },
        {
            "buffer" : 0,
            "byteLength" : 19272,
            "byteOffset" : 788424,
            "target" : 34962
        },
        {
            "buffer" : 0,
            "byteLength" : 27852,
            "byteOffset" : 807696,
            "target" : 34963
        },
        {
            "buffer" : 0,
            "byteLength" : 37668,
            "byteOffset" : 835548,
            "target" : 34962
        },
        {
            "buffer" : 0,
            "byteLength" : 37668,
            "byteOffset" : 873216,
            "target" : 34962
        },
        {
            "buffer" : 0,
            "byteLength" : 25112,
            "byteOffset" : 910884,
            "target" : 34962
        },
        {
            "buffer" : 0,
            "byteLength" : 25112,
            "byteOffset" : 935996,
            "target" : 34962
        },
        {
            "buffer" : 0,
            "byteLength" : 10968,
            "byteOffset" : 961108,
            "target" : 34963
        },
        {
            "buffer" : 0,
            "byteLength" : 5844,
            "byteOffset" : 972076,
            "target" : 34962
        },
        {
            "buffer" : 0,
            "byteLength" : 5844,
            "byteOffset" : 977920,
            "target" : 34962
        },
        {
            "buffer" : 0,
            "byteLength" : 3896,
            "byteOffset" : 983764,
            "target" : 34962
        },
        {
            "buffer" : 0,
            "byteLength" : 4968,
            "byteOffset" : 987660,
            "target" : 34963
        },
        {
            "buffer" : 0,
            "byteLength" : 152543,
            "byteOffset" : 992628
        }
    ],
    "samplers" : [
        {
            "magFilter" : 9729,
            "minFilter" : 9987
        },
        {
            "magFilter" : 9729,
            "minFilter" : 9987,
            "wrapS" : 33071,
            "wrapT" : 33071
        }
    ],
    "buffers" : [
        {
            "byteLength" : 1145172,
            "uri" : "data:application/octet-stream;base64,"
        }
    ]
}
