<svg width="512" height="512" viewBox="0 0 512 512" fill="none" xmlns="http://www.w3.org/2000/svg">
<circle cx="256" cy="256" r="256" fill="white"/>
<path d="M256.253 255.787L51.9771 189.415C81.3017 99.1603 161.356 41 256.253 41V255.787Z" fill="#FFD462"/>
<path d="M256.253 255.787L130.005 429.55C53.2282 373.772 22.6522 279.668 51.9769 189.414L256.253 255.787Z" fill="#FF9596"/>
<path d="M256.253 255.788L382.501 429.551C305.724 485.33 206.781 485.33 130.005 429.551L256.253 255.788Z" fill="#91B9FF"/>
<path d="M256.252 255.787L460.528 189.414C489.853 279.668 459.277 373.772 382.5 429.55L256.252 255.787Z" fill="#A6F7F8"/>
<path d="M256.252 255.787V41C351.15 41 431.203 99.1603 460.528 189.415L256.252 255.787Z" fill="#A9F9CD"/>
<path d="M256.252 332.475C298.381 332.475 332.533 298.323 332.533 256.194C332.533 214.065 298.381 179.913 256.252 179.913C214.123 179.913 179.971 214.065 179.971 256.194C179.971 298.323 214.123 332.475 256.252 332.475Z" fill="white"/>
</svg>
