<svg width="512" height="512" viewBox="0 0 512 512" fill="none" xmlns="http://www.w3.org/2000/svg">
<rect width="512" height="512" fill="white"/>
<path d="M255.597 255.218L76.3555 196.973C102.086 117.77 172.329 66.7314 255.597 66.7314V255.218Z" fill="#A9F9CD"/>
<path d="M255.597 255.219L144.821 407.705C77.4532 358.757 50.6244 276.176 76.3553 196.974L255.597 255.219Z" fill="#FF9596"/>
<path d="M255.596 255.219L366.372 407.705C299.005 456.653 212.188 456.653 144.82 407.705L255.596 255.219Z" fill="#91B9FF"/>
<path d="M255.597 255.219L434.838 196.974C460.569 276.176 433.74 358.757 366.373 407.705L255.597 255.219Z" fill="#A6F7F8"/>
<path d="M255.597 255.218V66.7314C338.864 66.7314 409.107 117.77 434.838 196.973L255.597 255.218Z" fill="#FFD462"/>
<path d="M255.596 398.782C334.677 398.782 398.785 334.666 398.785 255.576C398.785 176.486 334.677 112.37 255.596 112.37C176.515 112.37 112.407 176.486 112.407 255.576C112.407 334.666 176.515 398.782 255.596 398.782Z" fill="white"/>
</svg>
