<svg width="512" height="512" viewBox="0 0 512 512" fill="none" xmlns="http://www.w3.org/2000/svg">
<circle cx="251" cy="245" r="245" fill="white"/>
<path d="M251.121 244.734L71.1768 186.26C97.0086 106.747 167.527 55.5078 251.121 55.5078V244.734Z" fill="#A9F9CD"/>
<path d="M251.122 244.736L139.911 397.82C72.2795 348.679 45.3454 265.775 71.1773 186.262L251.122 244.736Z" fill="#FF9596"/>
<path d="M251.121 244.735L362.331 397.82C294.7 446.96 207.542 446.96 139.91 397.82L251.121 244.735Z" fill="#91B9FF"/>
<path d="M251.121 244.736L431.065 186.262C456.897 265.775 429.963 348.679 362.332 397.82L251.121 244.736Z" fill="#A6F7F8"/>
<path d="M251.121 244.734V55.5078C334.715 55.5078 405.234 106.747 431.065 186.26L251.121 244.734Z" fill="#FFD462"/>
<path d="M251.121 388.86C330.512 388.86 394.872 324.493 394.872 245.093C394.872 165.692 330.512 101.325 251.121 101.325C171.73 101.325 107.37 165.692 107.37 245.093C107.37 324.493 171.73 388.86 251.121 388.86Z" fill="white"/>
</svg>
