<svg width="512" height="512" viewBox="0 0 512 512" fill="none" xmlns="http://www.w3.org/2000/svg">
<circle cx="256" cy="256" r="240" fill="white"/>
<path d="M240.448 329.439C227.414 323.598 218.239 310.628 217.896 295.511V192.266H180.253V294.566C180.253 300.149 180.853 305.561 181.968 310.8C185.655 327.721 195.001 342.581 207.864 353.232C210.951 355.809 214.295 358.128 217.81 360.189C227.157 365.687 237.875 369.208 249.194 370.239V332.274C246.107 331.758 243.192 330.814 240.362 329.525H240.448V329.439ZM429.608 225.851C416.231 226.023 403.197 227.655 390.678 230.747C374.643 234.612 359.466 240.71 345.489 248.613V296.026C359.037 284.86 374.815 276.357 391.964 271.117C388.02 306.162 370.785 337.256 345.489 359.073V407.174C394.708 378.055 428.493 325.66 431.751 265.104C431.923 261.84 432.008 258.577 432.008 255.313C432.008 245.263 431.151 235.471 429.522 225.851H429.608ZM166.619 248.527C152.642 240.625 137.465 234.526 121.43 230.661C108.911 227.655 95.877 225.937 82.5004 225.765C80.8711 235.299 80.0137 245.177 80.0137 255.227C80.0137 258.491 80.0137 261.755 80.2709 265.019C83.6151 325.574 117.4 377.97 166.533 407.088V358.987C141.238 337.084 124.002 306.076 120.058 271.031C137.207 276.271 152.985 284.86 166.533 295.941V248.527H166.619Z" fill="#303030"/>
<path d="M256.141 130.251L294.384 178.609V213.568C309.905 220.955 322.938 232.637 332.028 247.153V178.695L288.725 122.348L256.141 80.0024L223.642 122.262L180.34 178.609H217.983L256.227 130.251H256.141V130.251Z" fill="#303030"/>
<path d="M293.698 228.599C292.755 227.998 291.726 227.482 290.697 226.967C290.354 226.795 290.011 226.623 289.583 226.452C288.296 225.764 286.924 225.163 285.552 224.562H285.381C284.095 223.961 282.723 223.445 281.437 222.93C281.008 222.758 280.579 222.672 280.15 222.501C279.121 222.157 278.092 221.813 277.063 221.556C276.635 221.47 276.206 221.298 275.691 221.212C274.234 220.869 272.776 220.439 271.318 220.181H271.147C269.775 219.838 268.317 219.58 266.859 219.408C266.431 219.408 265.916 219.322 265.487 219.237C264.373 219.065 263.258 218.979 262.143 218.893C261.715 218.893 261.2 218.893 260.771 218.807C259.228 218.721 257.684 218.635 256.141 218.635C247.566 218.635 239.249 220.095 231.531 222.758V265.362C236.505 261.153 242.593 258.147 249.367 256.944C251.596 256.515 253.826 256.343 256.141 256.343C258.456 256.343 260.771 256.601 262.915 256.944C275.263 259.177 285.552 267.337 290.697 278.332C292.755 282.712 294.041 287.608 294.299 292.762V295.768C293.956 310.886 284.781 323.856 271.747 329.697C268.917 330.985 266.002 331.93 262.915 332.445V370.41C274.319 369.38 284.952 365.858 294.299 360.361V387.332L293.27 387.589C283.58 390.338 273.376 392.056 262.915 392.571C260.771 392.571 258.542 392.743 256.398 392.743H255.884C253.654 392.743 251.511 392.743 249.367 392.571C238.906 392.056 228.702 390.338 219.012 387.589L217.983 387.332C217.383 387.16 216.783 386.988 216.097 386.816C203.835 383.037 192.259 377.626 181.798 370.754C181.283 370.496 180.854 370.153 180.34 369.809V414.818C191.23 420.057 202.806 424.18 214.81 427.101C227.33 430.107 240.363 431.825 253.74 431.997H258.628C272.004 431.825 285.038 430.193 297.557 427.101C309.562 424.18 321.138 420.057 332.028 414.818V294.823C332.028 266.564 316.593 241.913 293.784 228.857V228.599H293.698Z" fill="#303030"/>
</svg>
