<svg width="500" height="500" viewBox="0 0 500 500" fill="none" xmlns="http://www.w3.org/2000/svg">
<path d="M353.441 249.994C353.441 244.879 353.069 239.821 352.349 234.848L499.983 213.009L448.32 93.3928L393.57 106.407L406.584 51.6575L286.974 0L265.135 147.634C260.162 146.914 255.11 146.542 249.989 146.542C244.867 146.542 239.815 146.914 234.842 147.634L213.009 0L93.3985 51.6632L106.413 106.413L51.6632 93.3985L0 213.009L147.628 234.962C146.908 239.901 146.542 244.913 146.542 249.989C146.542 255.064 146.908 260.077 147.628 265.015L0 286.974L51.6632 406.59L106.413 393.576L93.3985 448.325L213.014 499.989L234.854 352.355C239.826 353.075 244.879 353.446 250 353.446C255.121 353.446 260.174 353.075 265.146 352.355L286.986 499.989L406.602 448.325L393.587 393.576L448.337 406.59L500 286.974L352.366 265.135C353.086 260.162 353.458 255.11 353.458 249.989L353.441 249.994ZM281.927 281.933C274.794 289.072 265.872 293.318 256.602 294.685C254.407 295.005 252.195 295.165 249.989 295.165C247.782 295.165 245.57 294.999 243.376 294.685C234.105 293.318 225.183 289.077 218.05 281.933C210.877 274.76 206.619 265.769 205.281 256.453C204.664 252.172 204.664 247.822 205.281 243.541C206.619 234.225 210.871 225.24 218.05 218.061C225.183 210.922 234.105 206.676 243.376 205.31C245.57 204.99 247.782 204.83 249.989 204.83C252.195 204.83 254.407 204.995 256.602 205.31C265.872 206.676 274.794 210.917 281.927 218.061C289.066 225.2 293.313 234.128 294.679 243.387C295.319 247.765 295.319 252.229 294.679 256.607C293.313 265.866 289.072 274.794 281.927 281.933Z" fill="white"/>
</svg>
