<svg width="440" height="30" viewBox="0 0 440 30" fill="none" xmlns="http://www.w3.org/2000/svg">
<path d="M21.2062 15C21.2062 14.6931 21.1839 14.3896 21.1407 14.0912L29.9986 12.7808L26.8989 5.60369L23.6139 6.38458L24.3948 3.09952L17.2183 0L15.9079 8.85823C15.6096 8.81502 15.3064 8.79273 14.9991 8.79273C14.6919 8.79273 14.3887 8.81502 14.0904 8.85823L12.7804 0L5.60385 3.09987L6.3847 6.38492L3.09976 5.60404L0 12.7808L8.85758 14.0981C8.81437 14.3944 8.79243 14.6951 8.79243 14.9997C8.79243 15.3042 8.81437 15.605 8.85758 15.9013L0 17.2188L3.09976 24.396L6.3847 23.6151L5.60385 26.9001L12.7807 30L14.0911 21.1418C14.3894 21.185 14.6926 21.2073 14.9998 21.2073C15.3071 21.2073 15.6102 21.185 15.9086 21.1418L17.2189 30L24.3958 26.9001L23.615 23.6151L26.8999 24.396L29.9997 17.2188L21.1417 15.9085C21.1849 15.6101 21.2072 15.3069 21.2072 14.9997L21.2062 15ZM16.9154 16.9164C16.4875 17.3447 15.9522 17.5995 15.3959 17.6815C15.2642 17.7007 15.1315 17.7103 14.9991 17.7103C14.8668 17.7103 14.7341 17.7003 14.6024 17.6815C14.0461 17.5995 13.5108 17.345 13.0828 16.9164C12.6525 16.486 12.397 15.9465 12.3167 15.3875C12.2797 15.1307 12.2797 14.8697 12.3167 14.6128C12.397 14.0538 12.6521 13.5147 13.0828 13.084C13.5108 12.6556 14.0461 12.4008 14.6024 12.3189C14.7341 12.2997 14.8668 12.2901 14.9991 12.2901C15.1315 12.2901 15.2642 12.3 15.3959 12.3189C15.9522 12.4008 16.4875 12.6553 16.9154 13.084C17.3438 13.5123 17.5986 14.048 17.6805 14.6036C17.7189 14.8663 17.7189 15.1341 17.6805 15.3968C17.5986 15.9524 17.3441 16.488 16.9154 16.9164Z" fill="#222222"/>
<path d="M35.9996 0H42.8138V26.5283L39.8996 23.614H55.9279V29.9997H35.9996V0Z" fill="#222222"/>
<path d="M59.3076 0H66.1218V29.9997H59.3076V0Z" fill="#222222"/>
<path d="M69.503 0H76.3172V26.5283L73.403 23.614H89.4314V29.9997H69.503V0Z" fill="#222222"/>
<path d="M81.8637 0H89.6208L93.3493 6.94278L96.7779 13.1999H95.8779L99.3064 6.94278L102.992 0H110.749L99.0493 20.6141H93.5636L81.8637 0ZM92.9208 17.4427H99.735V29.9997H92.9208V17.4427Z" fill="#222222"/>
<path d="M232.86 29.45H215.75V0.577156H222.367V22.8112H232.86V29.45Z" fill="#222222"/>
<path d="M247.967 0.577156C249.951 0.577156 251.817 0.95689 253.566 1.71636C255.315 2.47583 256.842 3.51027 258.147 4.8197C259.452 6.10294 260.483 7.62188 261.24 9.37651C261.997 11.1311 262.376 13.0036 262.376 14.994C262.376 16.9843 261.997 18.8568 261.24 20.6114C260.483 22.366 259.452 23.8981 258.147 25.2075C256.842 26.4907 255.315 27.5121 253.566 28.2716C251.817 29.031 249.951 29.4108 247.967 29.4108C245.984 29.4108 244.117 29.031 242.368 28.2716C240.62 27.5121 239.093 26.4907 237.788 25.2075C236.509 23.8981 235.491 22.366 234.734 20.6114C233.977 18.8568 233.598 16.9843 233.598 14.994C233.598 13.0036 233.977 11.1311 234.734 9.37651C235.491 7.62188 236.509 6.10294 237.788 4.8197C239.093 3.51027 240.62 2.47583 242.368 1.71636C244.117 0.95689 245.984 0.577156 247.967 0.577156ZM247.967 22.772C249.037 22.772 250.042 22.5755 250.982 22.1827C251.922 21.7637 252.744 21.2006 253.449 20.4936C254.153 19.7865 254.702 18.9615 255.093 18.0187C255.511 17.0759 255.72 16.0677 255.72 14.994C255.72 13.9202 255.511 12.912 255.093 11.9692C254.702 11.0264 254.153 10.2014 253.449 9.49436C252.744 8.78727 251.922 8.23731 250.982 7.84448C250.042 7.42546 249.037 7.21595 247.967 7.21595C246.897 7.21595 245.892 7.42546 244.953 7.84448C244.013 8.23731 243.191 8.78727 242.486 9.49436C241.781 10.2014 241.22 11.0264 240.802 11.9692C240.411 12.912 240.215 13.9202 240.215 14.994C240.215 16.0677 240.411 17.0759 240.802 18.0187C241.22 18.9615 241.781 19.7865 242.486 20.4936C243.191 21.2006 244.013 21.7637 244.953 22.1827C245.892 22.5755 246.897 22.772 247.967 22.772Z" fill="#222222"/>
<path d="M280.83 0.498589V7.17667H275.31V29.45H268.693V7.17667H263.212V0.498589H280.83Z" fill="#222222"/>
<path d="M294.579 29.45C293.118 29.45 291.734 29.1882 290.429 28.6644C289.124 28.1144 287.963 27.3419 286.945 26.3467C285.901 25.2992 285.091 24.1207 284.517 22.8112C283.969 21.5018 283.682 20.1007 283.656 18.608V0.577156H290.273V18.5687C290.273 19.721 290.703 20.7292 291.565 21.5935C292.426 22.4053 293.444 22.8112 294.619 22.8112C295.193 22.8112 295.741 22.6934 296.263 22.4577C296.785 22.222 297.242 21.9077 297.633 21.5149C298.025 21.1221 298.325 20.6638 298.534 20.14C298.743 19.6162 298.847 19.0532 298.847 18.4508V0.577156H305.464V18.4116C305.49 19.9043 305.216 21.3185 304.642 22.6541C304.094 23.9897 303.324 25.1551 302.332 26.1503C301.366 27.1454 300.217 27.9442 298.886 28.5465C297.581 29.1227 296.185 29.4239 294.697 29.45H294.579Z" fill="#222222"/>
<path d="M317.962 30C317.048 30 316.135 29.8691 315.221 29.6072C314.334 29.3715 313.485 28.9917 312.676 28.468C311.267 27.5514 310.17 26.3729 309.387 24.9325C308.604 23.466 308.213 21.8685 308.213 20.14H314.829C314.829 20.9257 314.999 21.5411 315.338 21.9863C315.678 22.4053 315.978 22.6934 316.239 22.8505C316.709 23.1648 317.218 23.335 317.766 23.3612C318.314 23.3874 318.849 23.2826 319.371 23.0469C319.737 22.8898 320.024 22.6934 320.233 22.4577C320.467 22.222 320.637 21.9994 320.742 21.7899C320.872 21.5542 320.95 21.3316 320.976 21.1221C321.003 20.9126 321.016 20.7423 321.016 20.6114C321.016 20.4805 321.003 20.3102 320.976 20.1007C320.95 19.8912 320.872 19.6686 320.742 19.4329C320.637 19.1972 320.467 18.9746 320.233 18.7651C320.024 18.5294 319.737 18.3199 319.371 18.1366C319.084 18.0056 318.771 17.8878 318.432 17.783C318.118 17.6783 317.779 17.5604 317.414 17.4295C316.761 17.22 316.082 16.9843 315.378 16.7224C314.673 16.4605 313.968 16.107 313.263 15.6618C312.35 15.0856 311.58 14.3654 310.953 13.5012C310.327 12.637 309.87 11.7073 309.583 10.7121C309.322 9.71696 309.231 8.69561 309.309 7.64807C309.413 6.57434 309.713 5.55298 310.209 4.58401C310.679 3.69359 311.267 2.92103 311.971 2.26632C312.676 1.6116 313.459 1.10093 314.32 0.734288C315.182 0.341458 316.108 0.105761 317.1 0.0271962C318.092 -0.0513701 319.097 0.0402895 320.115 0.302175C321.107 0.537872 322.007 0.917606 322.817 1.44138C323.626 1.93896 324.317 2.55439 324.892 3.28767C325.492 3.99476 325.949 4.79351 326.262 5.68392C326.575 6.57434 326.732 7.50403 326.732 8.47301H320.115C320.115 7.87067 319.919 7.45165 319.528 7.21595C319.162 6.98026 318.836 6.82313 318.549 6.74456C318.497 6.74456 318.366 6.73147 318.157 6.70528C317.975 6.6529 317.753 6.6529 317.492 6.70528C317.257 6.73147 317.009 6.82313 316.748 6.98026C316.487 7.1112 316.278 7.3338 316.121 7.64807C315.913 8.06708 315.874 8.51229 316.004 8.98368C316.135 9.42889 316.396 9.78243 316.787 10.0443C317.153 10.2538 317.557 10.4502 318.001 10.6336C318.445 10.7907 318.914 10.9478 319.41 11.105C319.854 11.2359 320.298 11.3799 320.742 11.5371C321.211 11.6942 321.681 11.8775 322.151 12.087C323.874 12.8727 325.218 14.025 326.184 15.5439C327.176 17.0629 327.672 18.752 327.672 20.6114C327.672 22.4446 327.176 24.1207 326.184 25.6396C325.218 27.1585 323.874 28.3108 322.151 29.0965C321.472 29.4108 320.781 29.6334 320.076 29.7643C319.371 29.9214 318.666 30 317.962 30Z" fill="#222222"/>
<path d="M360.483 13.3048V29.45H353.827V28.7429C353.096 29.0048 352.339 29.2012 351.556 29.3322C350.799 29.4369 350.042 29.4893 349.285 29.4893C347.432 29.4893 345.618 29.1358 343.843 28.4287C342.068 27.7216 340.476 26.661 339.066 25.2468C337.657 23.8326 336.6 22.2482 335.895 20.4936C335.216 18.7127 334.877 16.8926 334.877 15.0332C334.877 13.1739 335.216 11.3537 335.895 9.57292C336.6 7.7921 337.657 6.1946 339.066 4.78042C340.476 3.36624 342.068 2.3056 343.843 1.59851C345.618 0.891417 347.432 0.537871 349.285 0.537871C351.138 0.537871 352.953 0.891417 354.727 1.59851C356.502 2.3056 358.095 3.36624 359.504 4.78042L354.806 9.49436C354.049 8.73489 353.187 8.17184 352.222 7.8052C351.256 7.41237 350.277 7.21595 349.285 7.21595C348.293 7.21595 347.314 7.41237 346.349 7.8052C345.383 8.17184 344.522 8.73489 343.765 9.49436C343.008 10.2538 342.433 11.118 342.042 12.087C341.65 13.056 341.455 14.0381 341.455 15.0332C341.455 16.0284 341.65 17.0105 342.042 17.9795C342.433 18.9484 343.008 19.8126 343.765 20.5721C344.443 21.253 345.2 21.7899 346.036 22.1827C346.897 22.5494 347.771 22.772 348.659 22.8505C349.572 22.9029 350.473 22.8112 351.36 22.5755C352.248 22.3398 353.07 21.947 353.827 21.3971V19.9436H348.071V13.3048H360.483Z" fill="#222222"/>
<path d="M380.05 29.45L378.914 25.9539H369.87L368.696 29.45H361.687L371.475 0.616438H377.74L387.019 29.45H380.05ZM372.141 19.3151H376.8L374.529 12.3227L372.141 19.3151Z" fill="#222222"/>
<path d="M405.556 0.616438H412.172V29.45H405.007L395.611 12.637V29.45H388.994V0.695003H396.198L405.556 17.4688V0.616438Z" fill="#222222"/>
<path d="M439.171 13.3048V29.45H432.515V28.7429C431.784 29.0048 431.027 29.2012 430.244 29.3322C429.487 29.4369 428.73 29.4893 427.973 29.4893C426.12 29.4893 424.306 29.1358 422.531 28.4287C420.756 27.7216 419.164 26.661 417.754 25.2468C416.345 23.8326 415.288 22.2482 414.583 20.4936C413.904 18.7127 413.565 16.8926 413.565 15.0332C413.565 13.1739 413.904 11.3537 414.583 9.57292C415.288 7.7921 416.345 6.1946 417.754 4.78042C419.164 3.36624 420.756 2.3056 422.531 1.59851C424.306 0.891417 426.12 0.537871 427.973 0.537871C429.827 0.537871 431.641 0.891417 433.416 1.59851C435.191 2.3056 436.783 3.36624 438.192 4.78042L433.494 9.49436C432.737 8.73489 431.876 8.17184 430.91 7.8052C429.944 7.41237 428.965 7.21595 427.973 7.21595C426.981 7.21595 426.003 7.41237 425.037 7.8052C424.071 8.17184 423.21 8.73489 422.453 9.49436C421.696 10.2538 421.122 11.118 420.73 12.087C420.339 13.056 420.143 14.0381 420.143 15.0332C420.143 16.0284 420.339 17.0105 420.73 17.9795C421.122 18.9484 421.696 19.8126 422.453 20.5721C423.131 21.253 423.888 21.7899 424.724 22.1827C425.585 22.5494 426.459 22.772 427.347 22.8505C428.26 22.9029 429.161 22.8112 430.048 22.5755C430.936 22.3398 431.758 21.947 432.515 21.3971V19.9436H426.76V13.3048H439.171Z" fill="#222222"/>
<path d="M189.718 21.2798C188.602 20.7819 187.82 19.6759 187.79 18.385H187.787V9.5755H184.569V18.3015C184.569 18.7785 184.62 19.2406 184.719 19.6878C185.032 21.1337 185.829 22.3947 186.933 23.304C187.202 23.5246 187.486 23.7244 187.787 23.8973C188.59 24.3653 189.5 24.6664 190.473 24.7529V21.5123C190.211 21.4646 189.957 21.3841 189.718 21.2798ZM205.902 12.4524C204.756 12.4673 203.643 12.6074 202.574 12.8668C201.201 13.1947 199.903 13.7134 198.709 14.3931V18.4357C199.87 17.4847 201.216 16.7573 202.684 16.3071C202.344 19.2973 200.873 21.9446 198.709 23.8138V27.916C202.917 25.4326 205.807 20.9638 206.09 15.7973C206.105 15.5201 206.114 15.2428 206.114 14.9626C206.114 14.107 206.042 13.2692 205.905 12.4524H205.902ZM183.402 14.3902C182.205 13.7134 180.907 13.1977 179.537 12.8697C178.468 12.6104 177.355 12.4673 176.209 12.4554C176.072 13.2722 176 14.1099 176 14.9655C176 15.2458 176.009 15.523 176.024 15.8003C176.307 20.9638 179.197 25.4356 183.405 27.9189V23.8168C181.241 21.9505 179.767 19.3002 179.43 16.3101C180.898 16.7573 182.244 17.4877 183.405 18.4387V14.3931L183.402 14.3902Z" fill="#222222"/>
<path d="M191.056 4.28401L194.324 8.41002V11.3912C195.649 12.0203 196.769 13.019 197.542 14.2532V8.41002L193.835 3.60429L191.056 0L188.277 3.60429L184.57 8.41002H187.787L191.056 4.28401Z" fill="#222222"/>
<path d="M194.27 12.6731C194.187 12.6254 194.1 12.5777 194.013 12.5329C193.984 12.518 193.954 12.5001 193.921 12.4852C193.808 12.4286 193.694 12.3749 193.575 12.3272C193.569 12.3272 193.566 12.3243 193.56 12.3213C193.449 12.2736 193.336 12.2318 193.22 12.1901C193.184 12.1782 193.145 12.1662 193.109 12.1513C193.023 12.1215 192.933 12.0947 192.843 12.0708C192.805 12.0589 192.769 12.05 192.73 12.0381C192.608 12.0053 192.482 11.9754 192.357 11.9486C192.351 11.9486 192.345 11.9486 192.339 11.9456C192.22 11.9218 192.097 11.9009 191.972 11.883C191.933 11.8771 191.894 11.8741 191.852 11.8681C191.757 11.8562 191.661 11.8473 191.566 11.8383C191.527 11.8353 191.488 11.8324 191.447 11.8294C191.315 11.8204 191.181 11.8174 191.047 11.8174C190.309 11.8174 189.602 11.9397 188.942 12.1662V15.8004C189.369 15.4396 189.891 15.1862 190.465 15.0849C190.653 15.0521 190.847 15.0342 191.047 15.0342C191.247 15.0342 191.441 15.0521 191.629 15.0849C192.682 15.2757 193.563 15.9673 194.005 16.9094C194.184 17.285 194.291 17.6994 194.312 18.1376C194.312 18.1346 194.312 18.1317 194.318 18.1317V18.3851C194.285 19.6759 193.503 20.779 192.39 21.2798C192.151 21.3872 191.897 21.4676 191.632 21.5153V24.7559C192.605 24.6695 193.518 24.3684 194.318 23.9003V26.1988C194.288 26.2078 194.258 26.2167 194.228 26.2227C193.396 26.4552 192.527 26.6013 191.632 26.643C191.447 26.652 191.258 26.6579 191.073 26.6579H191.029C190.841 26.6579 190.653 26.652 190.467 26.643C189.572 26.5983 188.7 26.4552 187.871 26.2227C187.841 26.2137 187.811 26.2048 187.781 26.1988C187.73 26.1839 187.677 26.166 187.623 26.1511C186.572 25.8292 185.587 25.3671 184.686 24.7798C184.644 24.7559 184.602 24.7291 184.563 24.6993V28.5361C185.498 28.9833 186.483 29.3351 187.513 29.5825C188.581 29.8419 189.697 29.985 190.844 29.9969C190.912 29.9999 190.984 29.9999 191.053 29.9999C191.121 29.9999 191.193 29.9999 191.261 29.9969C192.408 29.982 193.521 29.8419 194.59 29.5825C195.619 29.3351 196.607 28.9833 197.539 28.5361V18.2986C197.539 15.8898 196.219 13.788 194.267 12.6731H194.27Z" fill="#222222"/>
</svg>
