<svg width="256" height="40" viewBox="0 0 256 40" fill="none" xmlns="http://www.w3.org/2000/svg">
<path d="M28.2753 20C28.2753 19.5908 28.2455 19.1861 28.1879 18.7883L39.9986 17.0411L35.8656 7.47159L31.4856 8.51277L32.5267 4.1327L22.9579 0L21.2108 11.811C20.813 11.7534 20.4088 11.7236 19.9991 11.7236C19.5894 11.7236 19.1852 11.7534 18.7874 11.811L17.0407 0L7.47188 4.13315L8.51303 8.51323L4.13306 7.47205L0 17.0411L11.8102 18.7974C11.7526 19.1925 11.7234 19.5935 11.7234 19.9995C11.7234 20.4056 11.7526 20.8066 11.8102 21.2017L0 22.9585L4.13306 32.528L8.51303 31.4868L7.47188 35.8668L17.0412 40L18.7883 28.189C19.1861 28.2466 19.5903 28.2764 20 28.2764C20.4097 28.2764 20.8139 28.2466 21.2117 28.189L22.9588 40L32.5281 35.8668L31.487 31.4868L35.8669 32.528L40 22.9585L28.1893 21.2113C28.2469 20.8135 28.2766 20.4092 28.2766 19.9995L28.2753 20ZM22.5542 22.5552C21.9835 23.1263 21.2698 23.466 20.5281 23.5753C20.3525 23.6009 20.1756 23.6137 19.9991 23.6137C19.8226 23.6137 19.6456 23.6004 19.4701 23.5753C18.7284 23.466 18.0146 23.1267 17.444 22.5552C16.8701 21.9813 16.5295 21.262 16.4225 20.5167C16.3731 20.1742 16.3731 19.8262 16.4225 19.4838C16.5295 18.7384 16.8697 18.0196 17.444 17.4453C18.0146 16.8742 18.7284 16.5344 19.4701 16.4252C19.6456 16.3996 19.8226 16.3867 19.9991 16.3867C20.1756 16.3867 20.3525 16.4 20.5281 16.4252C21.2698 16.5344 21.9835 16.8737 22.5542 17.4453C23.1253 18.0164 23.465 18.7307 23.5743 19.4714C23.6255 19.8217 23.6255 20.1788 23.5743 20.529C23.465 21.2698 23.1257 21.984 22.5542 22.5552Z" fill="#222222"/>
<path d="M90.2911 28.3729C88.8027 27.7091 87.76 26.2344 87.7202 24.5133H87.7162V12.7673H83.426V24.402C83.426 25.038 83.4936 25.6541 83.625 26.2503C84.0428 28.1782 85.1054 29.8596 86.578 31.0719C86.9361 31.3661 87.3142 31.6324 87.7162 31.863C88.7867 32.487 90.0006 32.8885 91.298 33.0038V28.683C90.9478 28.6194 90.6095 28.5121 90.2911 28.3729ZM111.87 16.6031C110.341 16.623 108.857 16.8098 107.432 17.1556C105.601 17.5929 103.87 18.2845 102.278 19.1908V24.5808C103.826 23.3128 105.621 22.3429 107.579 21.7427C107.126 25.7296 105.164 29.2594 102.278 31.7517V37.2212C107.89 33.9101 111.742 27.9516 112.12 21.063C112.14 20.6933 112.152 20.3237 112.152 19.95C112.152 18.8092 112.057 17.6922 111.874 16.6031H111.87ZM81.8699 19.1868C80.274 18.2845 78.5428 17.5968 76.716 17.1596C75.2913 16.8138 73.8068 16.623 72.2786 16.6071C72.0955 17.6962 72 18.8132 72 19.954C72 20.3276 72.0119 20.6973 72.0318 21.067C72.4099 27.9516 76.2624 33.914 81.8739 37.2252V31.7556C78.9885 29.2673 77.0225 25.7336 76.5728 21.7467C78.5308 22.3429 80.3257 23.3168 81.8739 24.5848V19.1908L81.8699 19.1868Z" fill="#222222"/>
<path d="M92.0745 5.71201L96.4324 11.2134V15.1883C98.1994 16.027 99.6918 17.3586 100.723 19.0043V11.2134L95.7797 4.80572L92.0745 0L88.3693 4.80572L83.4264 11.2134H87.7166L92.0745 5.71201Z" fill="#222222"/>
<path d="M96.3602 16.8973C96.2488 16.8337 96.1334 16.7701 96.018 16.7105C95.9782 16.6906 95.9384 16.6668 95.8946 16.6469C95.7434 16.5714 95.5921 16.4998 95.433 16.4362C95.425 16.4362 95.421 16.4323 95.4131 16.4283C95.2658 16.3647 95.1146 16.309 94.9594 16.2534C94.9116 16.2375 94.8599 16.2216 94.8121 16.2017C94.6967 16.162 94.5773 16.1262 94.4579 16.0944C94.4062 16.0785 94.3584 16.0666 94.3067 16.0507C94.1435 16.0069 93.9763 15.9672 93.8092 15.9314C93.8012 15.9314 93.7933 15.9314 93.7853 15.9274C93.6261 15.8956 93.463 15.8678 93.2958 15.844C93.2441 15.836 93.1923 15.832 93.1366 15.8241C93.0093 15.8082 92.8819 15.7963 92.7546 15.7843C92.7028 15.7804 92.6511 15.7764 92.5954 15.7724C92.4202 15.7605 92.2412 15.7565 92.0621 15.7565C91.0791 15.7565 90.1359 15.9195 89.2563 16.2216V21.0671C89.8254 20.5861 90.5219 20.2482 91.286 20.1131C91.5367 20.0693 91.7954 20.0455 92.0621 20.0455C92.3287 20.0455 92.5874 20.0693 92.8381 20.1131C94.243 20.3675 95.417 21.2897 96.006 22.5457C96.2448 23.0466 96.3881 23.5991 96.416 24.1834C96.416 24.1795 96.416 24.1755 96.4239 24.1755V24.5133C96.3801 26.2345 95.3374 27.7052 93.853 28.373C93.5346 28.5161 93.1963 28.6235 92.8421 28.6871V33.0078C94.1395 32.8926 95.3573 32.4911 96.4239 31.867V34.9317C96.3841 34.9436 96.3443 34.9556 96.3045 34.9635C95.1942 35.2736 94.036 35.4683 92.8421 35.524C92.5954 35.5359 92.3446 35.5439 92.0979 35.5439H92.0382C91.7875 35.5439 91.5367 35.5359 91.29 35.524C90.0961 35.4644 88.934 35.2736 87.8276 34.9635C87.7878 34.9516 87.748 34.9397 87.7082 34.9317C87.6405 34.9118 87.5689 34.888 87.4973 34.8681C86.0964 34.4388 84.783 33.8227 83.5811 33.0396C83.5254 33.0078 83.4697 32.9721 83.418 32.9323V38.0481C84.6636 38.6443 85.977 39.1134 87.35 39.4433C88.7748 39.7891 90.2632 39.9799 91.7914 39.9958C91.883 39.9998 91.9785 39.9998 92.07 39.9998C92.1616 39.9998 92.2571 39.9998 92.3486 39.9958C93.8769 39.9759 95.3613 39.7891 96.7861 39.4433C98.1591 39.1134 99.4764 38.6443 100.718 38.0481V24.3981C100.718 21.1863 98.959 18.384 96.3563 16.8973H96.3602Z" fill="#222222"/>
<path fill-rule="evenodd" clip-rule="evenodd" d="M149 0C146.239 0 144 2.23858 144 5V35C144 37.7614 146.239 40 149 40H179C181.761 40 184 37.7614 184 35V5C184 2.23858 181.761 0 179 0H149ZM169.458 19.1922C169.497 19.4574 169.517 19.7272 169.517 20L169.518 19.9997C169.518 20.2728 169.498 20.5423 169.459 20.8075L177.333 21.9723L174.578 28.352L171.658 27.6578L172.352 30.5779L165.972 33.3333L164.808 25.4594C164.542 25.4978 164.273 25.5176 164 25.5176C163.727 25.5176 163.457 25.4978 163.192 25.4594L162.027 33.3333L155.648 30.5779L156.342 27.6578L153.422 28.352L150.667 21.9723L158.54 20.8011C158.502 20.5377 158.482 20.2704 158.482 19.9997C158.482 19.729 158.502 19.4617 158.54 19.1983L150.667 18.0274L153.422 11.648L156.342 12.3421L155.648 9.4221L162.027 6.66667L163.191 14.5406C163.457 14.5022 163.726 14.4824 163.999 14.4824C164.272 14.4824 164.542 14.5022 164.807 14.5406L165.972 6.66667L172.351 9.4218L171.657 12.3418L174.577 11.6477L177.332 18.0274L169.458 19.1922ZM164.352 22.3835C164.846 22.3107 165.322 22.0842 165.703 21.7034C166.084 21.3227 166.31 20.8465 166.383 20.3527C166.417 20.1192 166.417 19.8811 166.383 19.6476C166.31 19.1538 166.083 18.6776 165.703 18.2969C165.322 17.9158 164.846 17.6896 164.352 17.6168C164.235 17.6 164.117 17.5912 163.999 17.5912C163.882 17.5912 163.764 17.5997 163.647 17.6168C163.152 17.6896 162.676 17.9161 162.296 18.2969C161.913 18.6797 161.686 19.1589 161.615 19.6558C161.582 19.8842 161.582 20.1161 161.615 20.3445C161.686 20.8414 161.913 21.3209 162.296 21.7034C162.676 22.0845 163.152 22.3107 163.647 22.3835C163.764 22.4003 163.882 22.4091 163.999 22.4091C164.117 22.4091 164.235 22.4006 164.352 22.3835Z" fill="#222222"/>
<path fill-rule="evenodd" clip-rule="evenodd" d="M221 0C218.239 0 216 2.23858 216 5V35C216 37.7614 218.239 40 221 40H251C253.761 40 256 37.7614 256 35V5C256 2.23858 253.761 0 251 0H221ZM233.147 23.009C233.173 24.1564 233.868 25.1395 234.861 25.5821C235.073 25.6748 235.298 25.7464 235.532 25.7888V28.6693C234.667 28.5925 233.858 28.3248 233.144 27.9088C232.876 27.7551 232.624 27.5775 232.385 27.3814C231.404 26.5732 230.695 25.4522 230.417 24.167C230.329 23.7695 230.284 23.3588 230.284 22.9348V15.1783H233.144V23.009H233.147ZM246.288 18.1039C247.238 17.8733 248.227 17.7488 249.246 17.7355H249.249C249.371 18.4616 249.435 19.2063 249.435 19.9668C249.435 20.2159 249.427 20.4623 249.413 20.7088C249.161 25.3012 246.593 29.2735 242.852 31.4809V27.8346C244.776 26.173 246.084 23.8199 246.386 21.1619C245.081 21.5621 243.884 22.2087 242.852 23.054V19.4607C243.913 18.8565 245.067 18.3954 246.288 18.1039ZM225.811 18.1065C227.028 18.398 228.183 18.8565 229.247 19.458L229.249 19.4607V23.0567C228.217 22.2113 227.02 21.5621 225.715 21.1646C226.015 23.8225 227.326 26.1783 229.249 27.8372V31.4836C225.508 29.2762 222.94 25.3012 222.688 20.7114C222.675 20.465 222.667 20.2186 222.667 19.9695C222.667 19.2089 222.73 18.4643 222.852 17.7382C223.871 17.7488 224.861 17.876 225.811 18.1065ZM236.05 10.4745L238.955 14.1421V16.792C240.133 17.3512 241.128 18.2389 241.815 19.336V14.1421L238.52 9.87032L236.05 6.6665L233.58 9.87032L230.285 14.1421H233.145L236.05 10.4745ZM238.679 17.8071C238.756 17.8468 238.833 17.8892 238.907 17.9316H238.904C240.639 18.9227 241.812 20.7909 241.812 22.9321V32.0321C240.984 32.4296 240.106 32.7423 239.191 32.9622C238.241 33.1928 237.251 33.3173 236.232 33.3306C236.171 33.3332 236.108 33.3332 236.047 33.3332C235.986 33.3332 235.922 33.3332 235.861 33.3306C234.842 33.32 233.85 33.1928 232.9 32.9622C231.985 32.7423 231.109 32.4296 230.279 32.0321V28.6216C230.313 28.6481 230.35 28.6719 230.387 28.6931C231.189 29.2152 232.064 29.6259 232.998 29.9121C233.026 29.92 233.055 29.9287 233.082 29.9373C233.102 29.9433 233.12 29.9491 233.139 29.9545C233.165 29.9598 233.192 29.9678 233.218 29.9757C233.956 30.1824 234.731 30.3096 235.527 30.3494C235.691 30.3573 235.858 30.3626 236.025 30.3626H236.065C236.23 30.3626 236.397 30.3573 236.561 30.3494C237.357 30.3123 238.129 30.1824 238.87 29.9757C238.896 29.9704 238.923 29.9625 238.949 29.9545V27.9114C238.238 28.3274 237.426 28.5951 236.561 28.6719V25.7914C236.798 25.749 237.023 25.6775 237.235 25.5821C238.225 25.1369 238.92 24.1564 238.949 23.0089V22.7837C238.944 22.7837 238.944 22.7864 238.944 22.789C238.925 22.3995 238.83 22.0311 238.671 21.6972C238.278 20.8598 237.495 20.245 236.559 20.0754C236.392 20.0463 236.219 20.0304 236.041 20.0304C235.864 20.0304 235.691 20.0463 235.524 20.0754C235.015 20.1655 234.55 20.3908 234.171 20.7114V17.4811C234.757 17.2797 235.386 17.1711 236.041 17.1711C236.161 17.1711 236.28 17.1737 236.397 17.1817C236.421 17.1834 236.444 17.1851 236.467 17.1869C236.479 17.1878 236.491 17.1887 236.503 17.1896L236.503 17.1896C236.588 17.1976 236.673 17.2055 236.758 17.2161C236.775 17.2186 236.792 17.2205 236.809 17.2224C236.827 17.2245 236.846 17.2266 236.864 17.2294C236.975 17.2453 237.084 17.2638 237.19 17.285C237.196 17.2877 237.201 17.2877 237.206 17.2877C237.318 17.3115 237.429 17.338 237.538 17.3672C237.555 17.3725 237.572 17.3771 237.588 17.3817C237.605 17.3864 237.621 17.391 237.639 17.3963C237.718 17.4175 237.798 17.4414 237.875 17.4679C237.9 17.4785 237.927 17.4874 237.954 17.496C237.96 17.4981 237.967 17.5002 237.973 17.5023C238.076 17.5394 238.177 17.5765 238.275 17.6189C238.277 17.6196 238.278 17.6203 238.279 17.621C238.282 17.6228 238.285 17.6242 238.289 17.6242C238.395 17.6666 238.496 17.7143 238.596 17.7647C238.614 17.7727 238.631 17.7817 238.647 17.7905C238.658 17.7962 238.668 17.8018 238.679 17.8071Z" fill="#222222"/>
</svg>
