<svg width="127" height="30" viewBox="0 0 127 30" fill="none" xmlns="http://www.w3.org/2000/svg">
<path d="M0 0.714355H6.44717V25.9189L3.68989 23.1501H18.8549V29.2171H0V0.714355Z" fill="#222222"/>
<path d="M34.3316 30C31.4121 30 28.8035 29.3757 26.5057 28.127C24.208 26.8511 22.4104 25.0867 21.1128 22.8336C19.8423 20.5805 19.2071 18.0289 19.2071 15.1786C19.2071 12.3012 19.8423 9.7495 21.1128 7.52357C22.4104 5.2705 24.208 3.51962 26.5057 2.27093C28.8035 0.995095 31.4121 0.357178 34.3316 0.357178C37.2781 0.357178 39.8867 0.995095 42.1574 2.27093C44.4551 3.51962 46.2528 5.2705 47.5503 7.52357C48.8478 9.77665 49.4966 12.3283 49.4966 15.1786C49.4966 18.056 48.8478 20.6212 47.5503 22.8743C46.2528 25.1002 44.4551 26.8511 42.1574 28.127C39.8596 29.3757 37.251 30 34.3316 30ZM34.3316 23.8516C36.0076 23.8516 37.4943 23.4851 38.7919 22.7522C40.0894 22.0192 41.0896 21.0013 41.7924 19.6983C42.5223 18.3682 42.8872 16.8616 42.8872 15.1786C42.8872 13.4956 42.5223 12.0026 41.7924 10.6996C41.0896 9.36946 40.0894 8.33794 38.7919 7.60501C37.4943 6.87208 36.0076 6.50562 34.3316 6.50562C32.6826 6.50562 31.2093 6.87208 29.9118 7.60501C28.6143 8.33794 27.6006 9.36946 26.8707 10.6996C26.1408 12.0026 25.7759 13.4956 25.7759 15.1786C25.7759 16.8616 26.1408 18.3682 26.8707 19.6983C27.6006 21.0013 28.6143 22.0192 29.9118 22.7522C31.2093 23.4851 32.6826 23.8516 34.3316 23.8516Z" fill="#222222"/>
<path d="M58.0865 3.11673H64.5336V29.2171H58.0865V3.11673ZM49.0847 0.714355H73.5354V6.78136H49.0847V0.714355Z" fill="#222222"/>
<path d="M88.6235 29.7871C86.1906 29.7871 84.0686 29.2985 82.2574 28.3213C80.4733 27.3169 79.1082 25.8918 78.162 24.0459C77.2159 22.2 76.7428 20.0148 76.7428 17.4902V0.714355H83.19V17.0423C83.19 19.2411 83.6496 20.897 84.5687 22.01C85.4878 23.0958 86.8394 23.6387 88.6235 23.6387C90.4346 23.6387 91.7862 23.0958 92.6783 22.01C93.5974 20.897 94.057 19.2411 94.057 17.0423V0.714355H100.504V17.4902C100.504 20.0148 100.018 22.2 99.0444 24.0459C98.0983 25.8918 96.7331 27.3169 94.949 28.3213C93.1649 29.2985 91.0564 29.7871 88.6235 29.7871Z" fill="#222222"/>
<path d="M115.227 29.6428C112.875 29.6428 110.821 29.2492 109.063 28.462C107.333 27.6748 106.009 26.5618 105.09 25.1231C104.171 23.6573 103.711 21.9471 103.711 19.9926H110.037C110.037 21.3227 110.496 22.3814 111.415 23.1686C112.334 23.9287 113.591 24.3087 115.186 24.3087C116.538 24.3087 117.606 24.0509 118.39 23.5351C119.174 22.9922 119.565 22.2457 119.565 21.2956C119.565 20.3184 119.092 19.5176 118.146 18.8932C117.227 18.2417 115.754 17.6988 113.727 17.2645C111.483 16.7759 109.645 16.138 108.212 15.3507C106.779 14.5635 105.711 13.5999 105.009 12.4598C104.306 11.3196 103.954 9.97595 103.954 8.42866C103.954 6.69135 104.373 5.19835 105.211 3.94966C106.076 2.67383 107.306 1.69659 108.901 1.01795C110.496 0.339318 112.375 0 114.537 0C116.754 0 118.687 0.393608 120.336 1.18083C122.012 1.9409 123.296 3.02672 124.188 4.43828C125.107 5.84984 125.567 7.50571 125.567 9.40589H119.363C119.363 8.13006 118.944 7.12568 118.106 6.39275C117.268 5.65982 116.105 5.29336 114.619 5.29336C113.727 5.29336 112.943 5.41551 112.267 5.65982C111.618 5.87699 111.118 6.21631 110.767 6.67778C110.415 7.13925 110.239 7.68216 110.239 8.3065C110.239 9.2023 110.672 9.9488 111.537 10.546C112.402 11.1432 113.916 11.6861 116.078 12.1747C119.62 13.0162 122.174 14.1428 123.742 15.5543C125.31 16.9388 126.094 18.7711 126.094 21.0513C126.094 23.7387 125.121 25.8425 123.174 27.3626C121.255 28.8827 118.606 29.6428 115.227 29.6428Z" fill="#222222"/>
</svg>
