<svg width="268" height="48" viewBox="0 0 268 48" fill="none" xmlns="http://www.w3.org/2000/svg">
<path d="M21.9493 34.0479C20.1632 33.2513 18.912 31.4817 18.8642 29.4163H18.8594V15.3211H13.7112V29.2827C13.7112 30.0459 13.7924 30.7853 13.95 31.5007C14.4514 33.8142 15.7265 35.8319 17.4936 37.2867C17.9234 37.6397 18.3771 37.9593 18.8594 38.2359C20.1441 38.9848 21.6007 39.4666 23.1576 39.6049V34.42C22.7373 34.3436 22.3314 34.2148 21.9493 34.0479V34.0479ZM47.8434 19.9241C46.0096 19.9479 44.2282 20.1721 42.5185 20.5871C40.3216 21.1118 38.2442 21.9418 36.3339 23.0293V29.4974C38.1916 27.9758 40.3455 26.8119 42.6952 26.0916C42.1507 30.8759 39.7963 35.1116 36.3339 38.1024V44.6658C43.0677 40.6924 47.6906 33.5423 48.1443 25.276C48.1682 24.8324 48.1825 24.3887 48.1825 23.9404C48.1825 22.5714 48.0679 21.231 47.8482 19.9241H47.8434ZM11.8439 23.0245C9.92878 21.9418 7.85133 21.1166 5.65926 20.5919C3.94954 20.1769 2.16819 19.9479 0.334302 19.9288C0.114618 21.2358 0 22.5762 0 23.9451C0 24.3935 0.0143272 24.8371 0.038206 25.2807C0.491902 33.5423 5.11482 40.6972 11.8486 44.6706V38.1071C8.38621 35.1211 6.02699 30.8807 5.48733 26.0964C7.837 26.8119 9.99086 27.9805 11.8486 29.5021V23.0293L11.8439 23.0245Z" fill="white"/>
<path d="M24.0892 6.85442L29.3186 13.456V18.226C31.439 19.2324 33.2299 20.8304 34.4669 22.8051V13.456L28.5354 5.76687L24.0892 0L19.6429 5.76687L13.7115 13.456H18.8597L24.0892 6.85442V6.85442Z" fill="white"/>
<path d="M29.2324 20.277C29.0987 20.2007 28.9602 20.1244 28.8217 20.0528C28.7739 20.029 28.7262 20.0004 28.6736 19.9765C28.4921 19.8859 28.3107 19.8 28.1196 19.7237C28.1101 19.7237 28.1053 19.7189 28.0958 19.7142C27.9191 19.6379 27.7376 19.5711 27.5513 19.5043C27.494 19.4852 27.4319 19.4661 27.3746 19.4423C27.2361 19.3946 27.0929 19.3517 26.9496 19.3135C26.8875 19.2944 26.8302 19.2801 26.7681 19.261C26.5723 19.2086 26.3717 19.1609 26.1711 19.1179C26.1616 19.1179 26.152 19.1179 26.1425 19.1132C25.9515 19.075 25.7556 19.0416 25.5551 19.013C25.493 19.0035 25.4309 18.9987 25.364 18.9891C25.2112 18.9701 25.0584 18.9557 24.9056 18.9414C24.8435 18.9367 24.7814 18.9319 24.7145 18.9271C24.5044 18.9128 24.2895 18.9081 24.0746 18.9081C22.895 18.9081 21.7631 19.1036 20.7077 19.4661V25.2807C21.3906 24.7035 22.2264 24.2981 23.1433 24.1359C23.4442 24.0834 23.7546 24.0548 24.0746 24.0548C24.3946 24.0548 24.705 24.0834 25.0059 24.1359C26.6917 24.4412 28.1005 25.5478 28.8073 27.0551C29.0939 27.6561 29.2658 28.3192 29.2992 29.0203C29.2992 29.0156 29.2992 29.0108 29.3088 29.0108V29.4162C29.2563 31.4816 28.005 33.2465 26.2237 34.0479C25.8416 34.2196 25.4357 34.3484 25.0106 34.4247V39.6096C26.5675 39.4713 28.0289 38.9895 29.3088 38.2407V41.9183C29.261 41.9326 29.2133 41.9469 29.1655 41.9564C27.8331 42.3285 26.4434 42.5622 25.0106 42.629C24.7145 42.6433 24.4137 42.6529 24.1176 42.6529H24.0459C23.7451 42.6529 23.4442 42.6433 23.1481 42.629C21.7154 42.5575 20.3208 42.3285 18.9932 41.9564C18.9454 41.9421 18.8977 41.9278 18.8499 41.9183C18.7687 41.8944 18.6828 41.8658 18.5968 41.842C16.9157 41.3268 15.3397 40.5875 13.8975 39.6478C13.8306 39.6096 13.7637 39.5667 13.7017 39.519V45.6579C15.1965 46.3734 16.7725 46.9363 18.4201 47.3322C20.1298 47.7472 21.9159 47.9761 23.7498 47.9952C23.8597 48 23.9743 48 24.0841 48C24.194 48 24.3086 48 24.4184 47.9952C26.2523 47.9714 28.0337 47.7472 29.7434 47.3322C31.391 46.9363 32.9718 46.3734 34.4618 45.6579V29.2779C34.4618 25.4238 32.351 22.061 29.2276 20.277H29.2324Z" fill="white"/>
<path d="M77.219 39.8039H61.4567V13.2929H67.5524V33.7082H77.219V39.8039Z" fill="white"/>
<path d="M91.1367 13.2929C92.9642 13.2929 94.6835 13.6416 96.2946 14.339C97.9057 15.0363 99.3124 15.9861 100.515 17.1884C101.717 18.3667 102.667 19.7614 103.364 21.3725C104.062 22.9836 104.41 24.7029 104.41 26.5304C104.41 28.3579 104.062 30.0772 103.364 31.6883C102.667 33.2994 101.717 34.7061 100.515 35.9084C99.3124 37.0867 97.9057 38.0245 96.2946 38.7218C94.6835 39.4192 92.9642 39.7679 91.1367 39.7679C89.3092 39.7679 87.5899 39.4192 85.9788 38.7218C84.3677 38.0245 82.961 37.0867 81.7586 35.9084C80.5804 34.7061 79.6426 33.2994 78.9452 31.6883C78.2479 30.0772 77.8992 28.3579 77.8992 26.5304C77.8992 24.7029 78.2479 22.9836 78.9452 21.3725C79.6426 19.7614 80.5804 18.3667 81.7586 17.1884C82.961 15.9861 84.3677 15.0363 85.9788 14.339C87.5899 13.6416 89.3092 13.2929 91.1367 13.2929ZM91.1367 33.6721C92.1226 33.6721 93.0484 33.4918 93.914 33.1311C94.7797 32.7464 95.5371 32.2294 96.1864 31.5801C96.8356 30.9309 97.3406 30.1734 97.7013 29.3077C98.086 28.4421 98.2784 27.5163 98.2784 26.5304C98.2784 25.5445 98.086 24.6187 97.7013 23.7531C97.3406 22.8874 96.8356 22.1299 96.1864 21.4807C95.5371 20.8314 94.7797 20.3265 93.914 19.9658C93.0484 19.581 92.1226 19.3887 91.1367 19.3887C90.1508 19.3887 89.225 19.581 88.3593 19.9658C87.4937 20.3265 86.7362 20.8314 86.087 21.4807C85.4377 22.1299 84.9207 22.8874 84.536 23.7531C84.1753 24.6187 83.9949 25.5445 83.9949 26.5304C83.9949 27.5163 84.1753 28.4421 84.536 29.3077C84.9207 30.1734 85.4377 30.9309 86.087 31.5801C86.7362 32.2294 87.4937 32.7464 88.3593 33.1311C89.225 33.4918 90.1508 33.6721 91.1367 33.6721Z" fill="white"/>
<path d="M121.412 13.2208V19.3526H116.326V39.8039H110.23V19.3526H105.18V13.2208H121.412Z" fill="white"/>
<path d="M134.078 39.8039C132.731 39.8039 131.457 39.5635 130.254 39.0825C129.052 38.5776 127.982 37.8682 127.044 36.9544C126.082 35.9926 125.337 34.9105 124.808 33.7082C124.303 32.5059 124.039 31.2194 124.014 29.8488V13.2929H130.11V29.8127C130.11 30.8707 130.507 31.7965 131.3 32.5901C132.094 33.3355 133.032 33.7082 134.114 33.7082C134.643 33.7082 135.148 33.6 135.629 33.3836C136.11 33.1672 136.531 32.8786 136.891 32.5179C137.252 32.1572 137.528 31.7364 137.721 31.2555C137.913 30.7746 138.009 30.2576 138.009 29.7045V13.2929H144.105V29.6684C144.129 31.0391 143.877 32.3376 143.348 33.5639C142.843 34.7903 142.133 35.8603 141.22 36.7741C140.33 37.6879 139.272 38.4213 138.045 38.9743C136.843 39.5033 135.557 39.7799 134.186 39.8039H134.078Z" fill="white"/>
<path d="M155.619 40.3089C154.777 40.3089 153.935 40.1887 153.094 39.9482C152.276 39.7318 151.495 39.3831 150.749 38.9022C149.451 38.0606 148.441 36.9785 147.719 35.6559C146.998 34.3094 146.637 32.8425 146.637 31.2555H152.733C152.733 31.9769 152.889 32.542 153.202 32.9507C153.515 33.3355 153.791 33.6 154.032 33.7443C154.464 34.0328 154.933 34.1891 155.438 34.2132C155.943 34.2372 156.436 34.141 156.917 33.9246C157.254 33.7803 157.518 33.6 157.711 33.3836C157.927 33.1672 158.083 32.9628 158.179 32.7704C158.3 32.554 158.372 32.3496 158.396 32.1572C158.42 31.9648 158.432 31.8085 158.432 31.6883C158.432 31.5681 158.42 31.4118 158.396 31.2194C158.372 31.027 158.3 30.8227 158.179 30.6062C158.083 30.3898 157.927 30.1854 157.711 29.9931C157.518 29.7766 157.254 29.5843 156.917 29.4159C156.653 29.2957 156.364 29.1875 156.051 29.0913C155.763 28.9951 155.45 28.8869 155.114 28.7667C154.512 28.5743 153.887 28.3579 153.238 28.1175C152.589 27.877 151.939 27.5524 151.29 27.1436C150.449 26.6146 149.739 25.9533 149.162 25.1598C148.585 24.3662 148.164 23.5126 147.9 22.5988C147.659 21.6851 147.575 20.7473 147.647 19.7854C147.743 18.7995 148.02 17.8617 148.477 16.972C148.91 16.1544 149.451 15.4451 150.1 14.8439C150.749 14.2428 151.471 13.7739 152.264 13.4372C153.058 13.0765 153.911 12.8601 154.825 12.788C155.739 12.7158 156.665 12.8 157.602 13.0405C158.516 13.2569 159.346 13.6055 160.091 14.0865C160.837 14.5433 161.474 15.1084 162.003 15.7817C162.556 16.431 162.977 17.1644 163.265 17.982C163.554 18.7995 163.698 19.6532 163.698 20.5429H157.602C157.602 19.9898 157.422 19.6051 157.061 19.3887C156.725 19.1722 156.424 19.028 156.16 18.9558C156.112 18.9558 155.991 18.9438 155.799 18.9198C155.631 18.8717 155.426 18.8717 155.186 18.9198C154.969 18.9438 154.741 19.028 154.5 19.1722C154.26 19.2925 154.068 19.4969 153.923 19.7854C153.731 20.1702 153.695 20.579 153.815 21.0118C153.935 21.4206 154.176 21.7452 154.536 21.9857C154.873 22.178 155.246 22.3584 155.655 22.5267C156.063 22.671 156.496 22.8153 156.953 22.9595C157.362 23.0798 157.771 23.212 158.179 23.3563C158.612 23.5006 159.045 23.6689 159.478 23.8613C161.065 24.5827 162.303 25.6407 163.193 27.0354C164.107 28.4301 164.564 29.981 164.564 31.6883C164.564 33.3716 164.107 34.9105 163.193 36.3052C162.303 37.6999 161.065 38.7579 159.478 39.4793C158.853 39.7679 158.216 39.9722 157.566 40.0925C156.917 40.2368 156.268 40.3089 155.619 40.3089Z" fill="white"/>
<path d="M194.791 24.9794V39.8039H188.659V39.1547C187.986 39.3951 187.289 39.5755 186.567 39.6957C185.87 39.7919 185.173 39.84 184.475 39.84C182.768 39.84 181.097 39.5154 179.462 38.8661C177.826 38.2169 176.36 37.243 175.061 35.9445C173.763 34.646 172.789 33.1912 172.139 31.5801C171.514 29.945 171.202 28.2738 171.202 26.5665C171.202 24.8592 171.514 23.188 172.139 21.5528C172.789 19.9177 173.763 18.4509 175.061 17.1524C176.36 15.8539 177.826 14.88 179.462 14.2307C181.097 13.5815 182.768 13.2569 184.475 13.2569C186.182 13.2569 187.854 13.5815 189.489 14.2307C191.124 14.88 192.591 15.8539 193.889 17.1524L189.561 21.4807C188.864 20.7833 188.07 20.2664 187.18 19.9297C186.291 19.569 185.389 19.3887 184.475 19.3887C183.561 19.3887 182.66 19.569 181.77 19.9297C180.88 20.2664 180.087 20.7833 179.389 21.4807C178.692 22.178 178.163 22.9716 177.802 23.8613C177.442 24.751 177.261 25.6527 177.261 26.5665C177.261 27.4802 177.442 28.382 177.802 29.2717C178.163 30.1614 178.692 30.9549 179.389 31.6522C180.015 32.2774 180.712 32.7704 181.481 33.1311C182.275 33.4677 183.08 33.6721 183.898 33.7443C184.74 33.7924 185.569 33.7082 186.387 33.4918C187.204 33.2754 187.962 32.9147 188.659 32.4097V31.0751H183.357V24.9794H194.791Z" fill="white"/>
<path d="M212.817 39.8039L211.771 36.5938H203.439L202.357 39.8039H195.9L204.918 13.329H210.689L219.237 39.8039H212.817ZM205.531 30.498H209.823L207.731 24.0777L205.531 30.498Z" fill="white"/>
<path d="M236.314 13.329H242.41V39.8039H235.809L227.152 24.3662V39.8039H221.057V13.4011H227.693L236.314 28.8028V13.329Z" fill="white"/>
<path d="M267.282 24.9794V39.8039H261.15V39.1547C260.477 39.3951 259.78 39.5755 259.058 39.6957C258.361 39.7919 257.663 39.84 256.966 39.84C255.259 39.84 253.588 39.5154 251.952 38.8661C250.317 38.2169 248.851 37.243 247.552 35.9445C246.254 34.646 245.28 33.1912 244.63 31.5801C244.005 29.945 243.693 28.2738 243.693 26.5665C243.693 24.8592 244.005 23.188 244.63 21.5528C245.28 19.9177 246.254 18.4509 247.552 17.1524C248.851 15.8539 250.317 14.88 251.952 14.2307C253.588 13.5815 255.259 13.2569 256.966 13.2569C258.673 13.2569 260.345 13.5815 261.98 14.2307C263.615 14.88 265.082 15.8539 266.38 17.1524L262.052 21.4807C261.355 20.7833 260.561 20.2664 259.671 19.9297C258.782 19.569 257.88 19.3887 256.966 19.3887C256.052 19.3887 255.151 19.569 254.261 19.9297C253.371 20.2664 252.578 20.7833 251.88 21.4807C251.183 22.178 250.654 22.9716 250.293 23.8613C249.933 24.751 249.752 25.6527 249.752 26.5665C249.752 27.4802 249.933 28.382 250.293 29.2717C250.654 30.1614 251.183 30.9549 251.88 31.6522C252.506 32.2774 253.203 32.7704 253.972 33.1311C254.766 33.4677 255.571 33.6721 256.389 33.7443C257.231 33.7924 258.06 33.7082 258.878 33.4918C259.695 33.2754 260.453 32.9147 261.15 32.4097V31.0751H255.848V24.9794H267.282Z" fill="white"/>
</svg>
