<svg width="400" height="30" viewBox="0 0 400 30" fill="none" xmlns="http://www.w3.org/2000/svg">
<path d="M192.167 29.45H175V0.577156H181.639V22.8112H192.167V29.45Z" fill="#222222"/>
<path d="M207.324 0.577156C209.315 0.577156 211.187 0.95689 212.942 1.71636C214.696 2.47583 216.228 3.51027 217.538 4.8197C218.847 6.10294 219.882 7.62188 220.641 9.37651C221.401 11.1311 221.78 13.0036 221.78 14.994C221.78 16.9843 221.401 18.8568 220.641 20.6114C219.882 22.366 218.847 23.8981 217.538 25.2075C216.228 26.4907 214.696 27.5121 212.942 28.2716C211.187 29.031 209.315 29.4108 207.324 29.4108C205.334 29.4108 203.461 29.031 201.707 28.2716C199.952 27.5121 198.42 26.4907 197.111 25.2075C195.827 23.8981 194.806 22.366 194.047 20.6114C193.287 18.8568 192.907 16.9843 192.907 14.994C192.907 13.0036 193.287 11.1311 194.047 9.37651C194.806 7.62188 195.827 6.10294 197.111 4.8197C198.42 3.51027 199.952 2.47583 201.707 1.71636C203.461 0.95689 205.334 0.577156 207.324 0.577156ZM207.324 22.772C208.398 22.772 209.406 22.5755 210.349 22.1827C211.292 21.7637 212.117 21.2006 212.824 20.4936C213.531 19.7865 214.081 18.9615 214.474 18.0187C214.893 17.0759 215.102 16.0677 215.102 14.994C215.102 13.9202 214.893 12.912 214.474 11.9692C214.081 11.0264 213.531 10.2014 212.824 9.49436C212.117 8.78727 211.292 8.23731 210.349 7.84448C209.406 7.42546 208.398 7.21595 207.324 7.21595C206.251 7.21595 205.242 7.42546 204.299 7.84448C203.357 8.23731 202.532 8.78727 201.825 9.49436C201.118 10.2014 200.555 11.0264 200.135 11.9692C199.743 12.912 199.546 13.9202 199.546 14.994C199.546 16.0677 199.743 17.0759 200.135 18.0187C200.555 18.9615 201.118 19.7865 201.825 20.4936C202.532 21.2006 203.357 21.7637 204.299 22.1827C205.242 22.5755 206.251 22.772 207.324 22.772Z" fill="#222222"/>
<path d="M240.296 0.498589V7.17667H234.757V29.45H228.119V7.17667H222.619V0.498589H240.296Z" fill="#222222"/>
<path d="M254.091 29.45C252.625 29.45 251.237 29.1882 249.927 28.6644C248.618 28.1144 247.452 27.3419 246.431 26.3467C245.383 25.2992 244.572 24.1207 243.995 22.8112C243.445 21.5018 243.157 20.1007 243.131 18.608V0.577156H249.77V18.5687C249.77 19.721 250.202 20.7292 251.066 21.5935C251.931 22.4053 252.952 22.8112 254.13 22.8112C254.707 22.8112 255.256 22.6934 255.78 22.4577C256.304 22.222 256.762 21.9077 257.155 21.5149C257.548 21.1221 257.849 20.6638 258.059 20.14C258.268 19.6162 258.373 19.0532 258.373 18.4508V0.577156H265.012V18.4116C265.038 19.9043 264.763 21.3185 264.187 22.6541C263.637 23.9897 262.864 25.1551 261.869 26.1503C260.9 27.1454 259.748 27.9442 258.412 28.5465C257.103 29.1227 255.702 29.4239 254.209 29.45H254.091Z" fill="#222222"/>
<path d="M277.551 30C276.634 30 275.718 29.8691 274.801 29.6072C273.911 29.3715 273.06 28.9917 272.248 28.468C270.834 27.5514 269.734 26.3729 268.948 24.9325C268.162 23.466 267.769 21.8685 267.769 20.14H274.408C274.408 20.9257 274.579 21.5411 274.919 21.9863C275.259 22.4053 275.561 22.6934 275.822 22.8505C276.294 23.1648 276.805 23.335 277.354 23.3612C277.904 23.3874 278.441 23.2826 278.965 23.0469C279.332 22.8898 279.62 22.6934 279.829 22.4577C280.065 22.222 280.235 21.9994 280.34 21.7899C280.471 21.5542 280.549 21.3316 280.576 21.1221C280.602 20.9126 280.615 20.7423 280.615 20.6114C280.615 20.4805 280.602 20.3102 280.576 20.1007C280.549 19.8912 280.471 19.6686 280.34 19.4329C280.235 19.1972 280.065 18.9746 279.829 18.7651C279.62 18.5294 279.332 18.3199 278.965 18.1366C278.677 18.0056 278.363 17.8878 278.022 17.783C277.708 17.6783 277.368 17.5604 277.001 17.4295C276.346 17.22 275.665 16.9843 274.958 16.7224C274.251 16.4605 273.544 16.107 272.837 15.6618C271.92 15.0856 271.148 14.3654 270.519 13.5012C269.891 12.637 269.432 11.7073 269.144 10.7121C268.882 9.71696 268.791 8.69561 268.869 7.64807C268.974 6.57434 269.275 5.55298 269.773 4.58401C270.244 3.69359 270.834 2.92103 271.541 2.26632C272.248 1.6116 273.033 1.10093 273.898 0.734288C274.762 0.341458 275.692 0.105761 276.687 0.0271962C277.682 -0.0513701 278.69 0.0402895 279.711 0.302175C280.707 0.537872 281.61 0.917606 282.422 1.44138C283.234 1.93896 283.928 2.55439 284.504 3.28767C285.106 3.99476 285.565 4.79351 285.879 5.68392C286.193 6.57434 286.35 7.50403 286.35 8.47301H279.711C279.711 7.87067 279.515 7.45165 279.122 7.21595C278.756 6.98026 278.428 6.82313 278.14 6.74456C278.088 6.74456 277.957 6.73147 277.747 6.70528C277.564 6.6529 277.341 6.6529 277.08 6.70528C276.844 6.73147 276.595 6.82313 276.333 6.98026C276.071 7.1112 275.862 7.3338 275.705 7.64807C275.495 8.06708 275.456 8.51229 275.587 8.98368C275.718 9.42889 275.98 9.78243 276.372 10.0443C276.739 10.2538 277.145 10.4502 277.59 10.6336C278.035 10.7907 278.507 10.9478 279.004 11.105C279.45 11.2359 279.895 11.3799 280.34 11.5371C280.811 11.6942 281.283 11.8775 281.754 12.087C283.483 12.8727 284.831 14.025 285.8 15.5439C286.795 17.0629 287.293 18.752 287.293 20.6114C287.293 22.4446 286.795 24.1207 285.8 25.6396C284.831 27.1585 283.483 28.3108 281.754 29.0965C281.073 29.4108 280.379 29.6334 279.672 29.7643C278.965 29.9214 278.258 30 277.551 30Z" fill="#222222"/>
<path d="M320.213 13.3048V29.45H313.535V28.7429C312.802 29.0048 312.042 29.2012 311.257 29.3322C310.497 29.4369 309.738 29.4893 308.978 29.4893C307.119 29.4893 305.299 29.1358 303.518 28.4287C301.737 27.7216 300.14 26.661 298.726 25.2468C297.311 23.8326 296.251 22.2482 295.544 20.4936C294.863 18.7127 294.522 16.8926 294.522 15.0332C294.522 13.1739 294.863 11.3537 295.544 9.57292C296.251 7.7921 297.311 6.1946 298.726 4.78042C300.14 3.36624 301.737 2.3056 303.518 1.59851C305.299 0.891417 307.119 0.537871 308.978 0.537871C310.838 0.537871 312.658 0.891417 314.439 1.59851C316.22 2.3056 317.817 3.36624 319.231 4.78042L314.517 9.49436C313.758 8.73489 312.894 8.17184 311.925 7.8052C310.956 7.41237 309.974 7.21595 308.978 7.21595C307.983 7.21595 307.001 7.41237 306.032 7.8052C305.063 8.17184 304.199 8.73489 303.44 9.49436C302.68 10.2538 302.104 11.118 301.711 12.087C301.318 13.056 301.122 14.0381 301.122 15.0332C301.122 16.0284 301.318 17.0105 301.711 17.9795C302.104 18.9484 302.68 19.8126 303.44 20.5721C304.12 21.253 304.88 21.7899 305.718 22.1827C306.582 22.5494 307.459 22.772 308.35 22.8505C309.266 22.9029 310.17 22.8112 311.06 22.5755C311.951 22.3398 312.776 21.947 313.535 21.3971V19.9436H307.761V13.3048H320.213Z" fill="#222222"/>
<path d="M339.845 29.45L338.706 25.9539H329.632L328.453 29.45H321.422L331.242 0.616438H337.528L346.838 29.45H339.845ZM331.91 19.3151H336.585L334.306 12.3227L331.91 19.3151Z" fill="#222222"/>
<path d="M365.436 0.616438H372.074V29.45H364.886L355.458 12.637V29.45H348.819V0.695003H356.047L365.436 17.4688V0.616438Z" fill="#222222"/>
<path d="M399.163 13.3048V29.45H392.484V28.7429C391.751 29.0048 390.992 29.2012 390.206 29.3322C389.447 29.4369 388.687 29.4893 387.928 29.4893C386.068 29.4893 384.248 29.1358 382.467 28.4287C380.687 27.7216 379.089 26.661 377.675 25.2468C376.261 23.8326 375.2 22.2482 374.493 20.4936C373.812 18.7127 373.472 16.8926 373.472 15.0332C373.472 13.1739 373.812 11.3537 374.493 9.57292C375.2 7.7921 376.261 6.1946 377.675 4.78042C379.089 3.36624 380.687 2.3056 382.467 1.59851C384.248 0.891417 386.068 0.537871 387.928 0.537871C389.787 0.537871 391.607 0.891417 393.388 1.59851C395.169 2.3056 396.766 3.36624 398.181 4.78042L393.467 9.49436C392.707 8.73489 391.843 8.17184 390.874 7.8052C389.905 7.41237 388.923 7.21595 387.928 7.21595C386.933 7.21595 385.95 7.41237 384.981 7.8052C384.012 8.17184 383.148 8.73489 382.389 9.49436C381.629 10.2538 381.053 11.118 380.66 12.087C380.268 13.056 380.071 14.0381 380.071 15.0332C380.071 16.0284 380.268 17.0105 380.66 17.9795C381.053 18.9484 381.629 19.8126 382.389 20.5721C383.07 21.253 383.829 21.7899 384.667 22.1827C385.531 22.5494 386.409 22.772 387.299 22.8505C388.216 22.9029 389.119 22.8112 390.01 22.5755C390.9 22.3398 391.725 21.947 392.484 21.3971V19.9436H386.71V13.3048H399.163Z" fill="#222222"/>
<path d="M0 0H6.81428V26.5286L3.9 23.6143H19.9286V30H0V0Z" fill="#222222"/>
<path d="M23.3083 0H30.1225V30H23.3083V0Z" fill="#222222"/>
<path d="M33.5038 0H40.3181V26.5286L37.4038 23.6143H53.4324V30H33.5038V0Z" fill="#222222"/>
<path d="M45.8647 0H53.6218L57.3504 6.94286L60.7789 13.2H59.8789L63.3075 6.94286L66.9932 0H74.7504L63.0504 20.6143H57.5647L45.8647 0ZM56.9218 17.4429H63.7361V30H56.9218V17.4429Z" fill="#222222"/>
</svg>
